<mxfile host="app.diagrams.net" modified="2023-07-21T09:00:00.765Z" agent="Mozilla/5.0 (X11; Linux x86_64) AppleWebKit/537.36 (KHTML, like Gecko) Chrome/112.0.0.0 Safari/537.36" version="21.6.5" etag="tlqWhOD5iOUJLpt11IeS" type="github">
  <diagram name="Pagina-1" id="ripCFqU5XTZ-AWU3RDwp">
    <mxGraphModel>
      <root>
        <mxCell id="0" />
        <mxCell id="1" parent="0" />
      </root>
    </mxGraphModel>
  </diagram>
</mxfile>
